<?xml version="1.0" encoding="UTF-8"?>
<svg id="Layer_2" data-name="Layer 2" xmlns="http://www.w3.org/2000/svg" viewBox="0 0 425.92 425.86">
  <defs>
    <style>
      .cls-1 {
        fill: #fff;
        stroke: #231f20;
        stroke-miterlimit: 10;
        stroke-width: .72px;
      }
    </style>
  </defs>
  <g id="Layer_1-2" data-name="Layer 1">
    <path class="cls-1" d="m368.32,226.69l56.32,5.92c.6-6.48.92-13.04.92-19.68s-.32-13.2-.92-19.68l-56.33,5.92c-.15-1.7-.32-3.39-.53-5.08l56.33-5.92c-1.54-13.25-4.28-26.13-8.14-38.52l-53.9,17.51c-.5-1.63-1.03-3.25-1.58-4.85l53.9-17.51c-4.25-12.56-9.64-24.58-16.05-35.96l-49.08,28.34c-.83-1.49-1.68-2.96-2.55-4.42l49.08-28.33c-6.74-11.33-14.5-21.99-23.16-31.83l-42.11,37.92c-1.12-1.28-2.26-2.54-3.42-3.79l42.12-37.92c-8.91-9.65-18.69-18.49-29.24-26.36l-33.32,45.87c-1.36-1.02-2.74-2.02-4.13-3l33.33-45.87c-10.67-7.57-22.08-14.18-34.09-19.71l-23.06,51.8c-1.54-.72-3.09-1.42-4.66-2.08l23.06-51.8c-11.96-5.16-24.48-9.25-37.45-12.16l-11.79,55.46c-1.65-.38-3.32-.72-4.99-1.05l11.79-55.47c-12.68-2.52-25.77-3.91-39.16-4.07v56.69c-.85-.01-1.7-.03-2.55-.03s-1.7.02-2.55.03V.36c-13.39.16-26.48,1.55-39.16,4.07l11.79,55.47c-1.67.33-3.34.67-4.99,1.05l-11.79-55.46c-12.97,2.91-25.49,7-37.45,12.16l23.06,51.8c-1.57.67-3.12,1.37-4.66,2.08l-23.06-51.8c-12.01,5.53-23.41,12.13-34.09,19.71l33.33,45.87c-1.39.98-2.77,1.98-4.13,3l-33.32-45.86c-10.55,7.87-20.33,16.7-29.24,26.36l42.12,37.92c-1.16,1.24-2.3,2.5-3.42,3.79l-42.11-37.92c-8.66,9.85-16.42,20.5-23.16,31.83l49.08,28.33c-.88,1.46-1.72,2.93-2.55,4.42l-49.08-28.34c-6.4,11.38-11.8,23.4-16.05,35.96l53.9,17.51c-.55,1.61-1.08,3.22-1.58,4.85l-53.9-17.51c-3.86,12.39-6.6,25.27-8.14,38.52l56.33,5.92c-.2,1.68-.38,3.38-.53,5.08l-56.33-5.92c-.6,6.48-.92,13.04-.92,19.68s.32,13.2.92,19.68l56.32-5.92c.15,1.7.32,3.39.52,5.08l-56.32,5.92c1.54,13.25,4.28,26.13,8.14,38.52l53.87-17.5c.5,1.63,1.02,3.25,1.57,4.85l-53.86,17.5c4.25,12.56,9.64,24.58,16.05,35.96l49.03-28.3c.83,1.49,1.68,2.96,2.55,4.42l-49.02,28.3c6.74,11.33,14.5,21.99,23.16,31.83l42.05-37.86c1.12,1.28,2.26,2.54,3.42,3.79l-42.05,37.87c8.91,9.65,18.69,18.49,29.24,26.36l33.26-45.78c1.36,1.02,2.73,2.02,4.13,3l-33.26,45.78c10.67,7.57,22.08,14.18,34.09,19.71l23.02-51.7c1.54.72,3.09,1.42,4.66,2.08l-23.01,51.69c11.96,5.16,24.48,9.25,37.45,12.16l11.76-55.34c1.65.38,3.32.72,4.99,1.05l-11.76,55.35c12.68,2.52,25.77,3.91,39.16,4.07v-56.57c.85.01,1.7.03,2.55.03s1.7-.02,2.55-.03v56.57c13.39-.16,26.48-1.55,39.16-4.07l-11.76-55.35c1.67-.33,3.34-.67,4.99-1.05l11.76,55.34c12.97-2.91,25.49-7,37.45-12.16l-23.01-51.69c1.57-.67,3.12-1.37,4.66-2.08l23.02,51.7c12.01-5.53,23.41-12.13,34.09-19.71l-33.26-45.78c1.39-.98,2.77-1.98,4.13-3l33.26,45.78c10.55-7.87,20.33-16.7,29.24-26.36l-42.05-37.87c1.16-1.25,2.3-2.5,3.42-3.79l42.05,37.86c8.66-9.85,16.42-20.5,23.16-31.83l-49.02-28.3c.87-1.46,1.72-2.93,2.55-4.42l49.03,28.3c6.4-11.38,11.8-23.4,16.05-35.96l-53.86-17.5c.55-1.61,1.07-3.22,1.57-4.85l53.87,17.5c3.86-12.39,6.6-25.27,8.14-38.52l-56.32-5.92c.2-1.68.38-3.38.52-5.08Zm-155.36,85.45c-54.79,0-99.21-44.42-99.21-99.21s44.42-99.21,99.21-99.21,99.21,44.42,99.21,99.21-44.42,99.21-99.21,99.21Z"/>
  </g>
</svg>